# xmcd
#
# Track frame offsets:
#	150
#	18854
#	33293
#	50867
#	67882
#	83383
#	100105
#	119479
#	133062
#	151306
#	166249
#	183326
#	198364
#	215363
#	231883
#	242831
#	252441
#	267058
#	283176
#	300962
#	313922
#
# Disc length: 4381 seconds
#
# Revision: 1
# Processed by: cddbd v1.5.2PL0 Copyright (c) Steve Scherf et al.
# Submitted via: audiograbber 1.83.01
#
DISCID=1c111b15
DTITLE=CDX - 512
DYEAR=2010
DGENRE=Country
TTITLE0=Easton Corbin - I Can't Love You Back
TTITLE1=Blake Wise - I've Got This Feeling
TTITLE2=Little Big Town - Kiss Goodbye
TTITLE3=Kenny Chesney - Somewhere With You
TTITLE4=Joey and Rory - That's Important To Me
TTITLE5=Tyler Stephens - Freedom Don't Come Free
TTITLE6=Dean Douglas - I Got The Blues
TTITLE7=Gary Nichols - Life With The Tailgate Down
TTITLE8=Lathan Moore - Love In Your Life
TTITLE9=Joe Zelek Band - No Place Like Home
TTITLE10=Marthia Sides - Angels In The Snow
TTITLE11=Emil - Christmas All Around
TTITLE12=Rachel Holder - Christmas Eve
TTITLE13=Richard Lyons Weil - Christmas Time In Nashville
TTITLE14=Smokey River Boys - Honky Tonk Christmas
TTITLE15=Jim Jensen and North Pole Pickers and Swingers - Silent Night
TTITLE16=Santa Junior - Christmas Every Day With You
TTITLE17=Joe Louis Puerta - I'm Comin' Home For Christmas
TTITLE18=Chris Saint Nicholas - Merry Christmas
TTITLE19=Four Sisters and A Cousin - White Christmas
TTITLE20=I Wanna Play - I Wanna Play
EXTD=
EXTT0=
EXTT1=
EXTT2=
EXTT3=
EXTT4=
EXTT5=
EXTT6=
EXTT7=
EXTT8=
EXTT9=
EXTT10=
EXTT11=
EXTT12=
EXTT13=
EXTT14=
EXTT15=
EXTT16=
EXTT17=
EXTT18=
EXTT19=
EXTT20=
PLAYORDER=
